<?xml version="1.0" encoding="UTF-8" standalone="no"?>
<!-- Created with Inkscape (http://www.inkscape.org/) -->

<svg
   xmlns:dc="http://purl.org/dc/elements/1.1/"
   xmlns:cc="http://creativecommons.org/ns#"
   xmlns:rdf="http://www.w3.org/1999/02/22-rdf-syntax-ns#"
   xmlns:svg="http://www.w3.org/2000/svg"
   xmlns="http://www.w3.org/2000/svg"
   xmlns:xlink="http://www.w3.org/1999/xlink"
   xmlns:sodipodi="http://sodipodi.sourceforge.net/DTD/sodipodi-0.dtd"
   xmlns:inkscape="http://www.inkscape.org/namespaces/inkscape"
   width="128"
   height="128"
   id="svg2408"
   sodipodi:version="0.32"
   inkscape:version="0.48.4 r9939"
   version="1.0"
   sodipodi:docname="GFrun.svg"
   inkscape:output_extension="org.inkscape.output.svg.inkscape"
   inkscape:export-filename="/home/nox/Documents/GFrun/_.local/share/icons/Gfrun.png"
   inkscape:export-xdpi="90"
   inkscape:export-ydpi="90">
  <defs
     id="defs2410">
    <linearGradient
       id="ButtonShadow"
       gradientTransform="scale(1.0058652,0.994169)"
       x1="45.447727"
       y1="92.539597"
       x2="45.447727"
       y2="7.0165396"
       gradientUnits="userSpaceOnUse">
      <stop
         style="stop-color:#000000;stop-opacity:1;"
         offset="0"
         id="stop3750" />
      <stop
         style="stop-color:#000000;stop-opacity:0.58823532;"
         offset="1"
         id="stop3752" />
    </linearGradient>
    <linearGradient
       inkscape:collect="always"
       id="linearGradient3737">
      <stop
         style="stop-color:#ffffff;stop-opacity:1;"
         offset="0"
         id="stop3739" />
      <stop
         style="stop-color:#ffffff;stop-opacity:0;"
         offset="1"
         id="stop3741" />
    </linearGradient>
    <filter
       inkscape:collect="always"
       id="filter3174"
       color-interpolation-filters="sRGB">
      <feGaussianBlur
         inkscape:collect="always"
         stdDeviation="1.71"
         id="feGaussianBlur3176" />
    </filter>
    <linearGradient
       inkscape:collect="always"
       xlink:href="#linearGradient3737"
       id="linearGradient3188"
       gradientUnits="userSpaceOnUse"
       x1="36.357143"
       y1="6"
       x2="36.357143"
       y2="63.893143"
       gradientTransform="matrix(1.405628,0,0,1.405628,-2.5949831,-36.930575)" />
    <filter
       inkscape:collect="always"
       id="filter3794"
       x="-0.192"
       width="1.3839999"
       y="-0.192"
       height="1.3839999"
       color-interpolation-filters="sRGB">
      <feGaussianBlur
         inkscape:collect="always"
         stdDeviation="5.28"
         id="feGaussianBlur3796" />
    </filter>
    <linearGradient
       inkscape:collect="always"
       xlink:href="#linearGradient3737"
       id="linearGradient3613"
       x1="48"
       y1="20.220806"
       x2="48"
       y2="138.66119"
       gradientUnits="userSpaceOnUse" />
    <radialGradient
       inkscape:collect="always"
       xlink:href="#linearGradient3737"
       id="radialGradient3619"
       cx="48"
       cy="90.171875"
       fx="48"
       fy="90.171875"
       r="42"
       gradientTransform="matrix(1.6267514,0,0,1.3998758,-13.208908,-36.653481)"
       gradientUnits="userSpaceOnUse" />
    <clipPath
       clipPathUnits="userSpaceOnUse"
       id="clipPath3613">
      <rect
         ry="6"
         rx="6"
         y="6"
         x="6"
         height="84"
         width="84"
         id="rect3615"
         style="fill:#ffffff;fill-opacity:1;fill-rule:nonzero;stroke:none" />
    </clipPath>
    <linearGradient
       inkscape:collect="always"
       xlink:href="#linearGradient3282"
       id="linearGradient3617"
       gradientUnits="userSpaceOnUse"
       x1="48"
       y1="90"
       x2="48"
       y2="5.9877172"
       gradientTransform="matrix(1.405628,0,0,1.405628,-2.5949831,-36.930575)" />
    <linearGradient
       inkscape:collect="always"
       id="linearGradient3267">
      <stop
         style="stop-color:#ffffff;stop-opacity:1;"
         offset="0"
         id="stop3269" />
      <stop
         style="stop-color:#ffffff;stop-opacity:0;"
         offset="1"
         id="stop3271" />
    </linearGradient>
    <radialGradient
       r="56.542881"
       fy="7.457119"
       fx="108.53934"
       cy="7.457119"
       cx="108.53934"
       gradientTransform="matrix(-1.9262247,1.6591387e-8,-1.7560233e-8,-2.0387056,318.51311,-13.29394)"
       gradientUnits="userSpaceOnUse"
       id="radialGradient2888"
       xlink:href="#linearGradient3267"
       inkscape:collect="always" />
    <linearGradient
       id="linearGradient3282">
      <stop
         style="stop-color:#797979;stop-opacity:1;"
         offset="0"
         id="stop3284" />
      <stop
         style="stop-color:#dcdcdc;stop-opacity:1;"
         offset="1"
         id="stop3286" />
    </linearGradient>
    <linearGradient
       id="linearGradient3305">
      <stop
         id="stop3307"
         offset="0"
         style="stop-color:#dcdcdc;stop-opacity:1;" />
      <stop
         id="stop3309"
         offset="1"
         style="stop-color:#ffffff;stop-opacity:0;" />
    </linearGradient>
    <linearGradient
       inkscape:collect="always"
       xlink:href="#linearGradient3305"
       id="linearGradient3699"
       x1="76.35714"
       y1="82.500275"
       x2="76.35714"
       y2="24.070036"
       gradientUnits="userSpaceOnUse"
       gradientTransform="matrix(1.405628,0,0,1.405628,-2.5949831,-36.930575)" />
    <linearGradient
       id="ButtonShadow-0"
       gradientTransform="matrix(1.0058652,0,0,0.994169,100,0)"
       x1="45.447727"
       y1="92.539597"
       x2="45.447727"
       y2="7.0165396"
       gradientUnits="userSpaceOnUse">
      <stop
         style="stop-color:#000000;stop-opacity:1;"
         offset="0"
         id="stop3750-8" />
      <stop
         style="stop-color:#000000;stop-opacity:0.58823532;"
         offset="1"
         id="stop3752-5" />
    </linearGradient>
    <linearGradient
       inkscape:collect="always"
       xlink:href="#ButtonShadow-0"
       id="linearGradient3780"
       gradientUnits="userSpaceOnUse"
       gradientTransform="matrix(1.0238095,0,0,1.0119048,-1.1428571,-98.071429)"
       x1="32.251034"
       y1="6.1317081"
       x2="32.251034"
       y2="90.238609" />
    <linearGradient
       inkscape:collect="always"
       xlink:href="#ButtonShadow-0"
       id="linearGradient3772"
       gradientUnits="userSpaceOnUse"
       gradientTransform="matrix(1.0238095,0,0,1.0119048,-1.1428571,-98.071429)"
       x1="32.251034"
       y1="6.1317081"
       x2="32.251034"
       y2="90.238609" />
    <linearGradient
       inkscape:collect="always"
       xlink:href="#ButtonShadow-0"
       id="linearGradient3725"
       gradientUnits="userSpaceOnUse"
       gradientTransform="matrix(1.4390953,0,0,1.4223618,-4.201415,-100.92137)"
       x1="32.251034"
       y1="6.1317081"
       x2="32.251034"
       y2="90.238609" />
    <linearGradient
       inkscape:collect="always"
       xlink:href="#ButtonShadow-0"
       id="linearGradient3721"
       gradientUnits="userSpaceOnUse"
       gradientTransform="matrix(1.405628,0,0,1.405628,-2.5949831,-99.415342)"
       x1="32.251034"
       y1="6.1317081"
       x2="32.251034"
       y2="90.238609" />
    <linearGradient
       y2="90.238609"
       x2="32.251034"
       y1="6.1317081"
       x1="32.251034"
       gradientTransform="matrix(1.0238095,0,0,1.0119048,-1.1428571,-98.071429)"
       gradientUnits="userSpaceOnUse"
       id="linearGradient3059"
       xlink:href="#ButtonShadow-0"
       inkscape:collect="always" />
    <linearGradient
       inkscape:collect="always"
       xlink:href="#linearGradient3282"
       id="linearGradient3902"
       gradientUnits="userSpaceOnUse"
       x1="80"
       y1="40"
       x2="32"
       y2="64"
       gradientTransform="matrix(-0.96952453,1.038638,-0.99355883,-1.0482501,155.28438,33.353025)" />
    <linearGradient
       y2="64"
       x2="32"
       y1="40"
       x1="80"
       gradientTransform="matrix(0.94008974,-1.0653535,1.0224942,1.0200455,-25.656673,29.993441)"
       gradientUnits="userSpaceOnUse"
       id="linearGradient3104"
       xlink:href="#linearGradient3282"
       inkscape:collect="always" />
    <linearGradient
       id="linearGradient3282-7">
      <stop
         style="stop-color:#ffffff;stop-opacity:1;"
         offset="0"
         id="stop3284-0" />
      <stop
         style="stop-color:#dcdcdc;stop-opacity:1;"
         offset="1"
         id="stop3286-3" />
    </linearGradient>
    <linearGradient
       id="linearGradient3282-7-1">
      <stop
         style="stop-color:#ffffff;stop-opacity:1;"
         offset="0"
         id="stop3284-0-0" />
      <stop
         style="stop-color:#dcdcdc;stop-opacity:1;"
         offset="1"
         id="stop3286-3-9" />
    </linearGradient>
    <linearGradient
       inkscape:collect="always"
       xlink:href="#linearGradient3282-7-1"
       id="linearGradient3825"
       x1="5.8387852"
       y1="30.539568"
       x2="123.91153"
       y2="30.539568"
       gradientUnits="userSpaceOnUse" />
  </defs>
  <sodipodi:namedview
     id="base"
     pagecolor="#ffffff"
     bordercolor="#666666"
     borderopacity="1.0"
     inkscape:pageopacity="0.0"
     inkscape:pageshadow="2"
     inkscape:zoom="3.9362372"
     inkscape:cx="65.938871"
     inkscape:cy="59.297186"
     inkscape:document-units="px"
     inkscape:current-layer="layer1"
     showgrid="true"
     showborder="true"
     inkscape:showpageshadow="true"
     inkscape:window-width="1323"
     inkscape:window-height="715"
     inkscape:window-x="41"
     inkscape:window-y="24"
     inkscape:window-maximized="0"
     inkscape:snap-global="false"
     borderlayer="false">
    <inkscape:grid
       type="xygrid"
       id="grid3732"
       visible="true"
       enabled="true"
       empspacing="5"
       snapvisiblegridlinesonly="true" />
  </sodipodi:namedview>
  <metadata
     id="metadata2413">
    <rdf:RDF>
      <cc:Work
         rdf:about="">
        <dc:format>image/svg+xml</dc:format>
        <dc:type
           rdf:resource="http://purl.org/dc/dcmitype/StillImage" />
        <dc:title></dc:title>
      </cc:Work>
    </rdf:RDF>
  </metadata>
  <g
     inkscape:groupmode="layer"
     id="layer2"
     inkscape:label="Blur Shadow"
     style="display:none"
     transform="translate(0,32)">
    <rect
       style="opacity:0.9;fill:url(#ButtonShadow);fill-opacity:1;fill-rule:nonzero;stroke:none;filter:url(#filter3174)"
       id="rect3745"
       width="86"
       height="85"
       x="5"
       y="7"
       rx="6"
       ry="6" />
  </g>
  <g
     inkscape:groupmode="layer"
     id="layer3"
     inkscape:label="Shadow"
     style="display:none"
     transform="translate(0,32)">
    <path
       sodipodi:type="inkscape:offset"
       inkscape:radius="0.99097413"
       inkscape:original="M 12 -94.03125 C 7.028367 -94.03125 2.96875 -89.971633 2.96875 -85 L 2.96875 -14 C 2.96875 -9.0283671 7.0283671 -4.96875 12 -4.96875 L 84 -4.96875 C 88.971633 -4.96875 93.03125 -9.028367 93.03125 -14 L 93.03125 -85 C 93.03125 -89.971633 88.971633 -94.03125 84 -94.03125 L 12 -94.03125 z "
       style="opacity:0.07999998;fill:url(#linearGradient3059);fill-opacity:1;fill-rule:nonzero;stroke:none;display:inline"
       id="path3786"
       d="m 12,-95.03125 c -5.5110903,0 -10.03125,4.52016 -10.03125,10.03125 l 0,71 c 0,5.5110902 4.5201598,10.03125 10.03125,10.03125 l 72,0 c 5.51109,0 10.03125,-4.5201597 10.03125,-10.03125 l 0,-71 c 0,-5.51109 -4.52016,-10.03125 -10.03125,-10.03125 l -72,0 z"
       transform="matrix(1.405628,0,0,-1.405628,-2.5949831,-36.930575)" />
    <path
       sodipodi:type="inkscape:offset"
       inkscape:radius="1.0360184"
       inkscape:original="M 12 -93 C 7.5908667 -93 4 -89.409133 4 -85 L 4 -14 C 4 -9.5908667 7.5908667 -6 12 -6 L 84 -6 C 88.409133 -6 92 -9.5908667 92 -14 L 92 -85 C 92 -89.409133 88.409133 -93 84 -93 L 12 -93 z "
       style="opacity:0.1;fill:url(#linearGradient3780);fill-opacity:1;fill-rule:nonzero;stroke:none;display:inline"
       id="path3778"
       d="m 12,-94.03125 c -4.971633,0 -9.03125,4.059617 -9.03125,9.03125 l 0,71 c 0,4.9716329 4.0596171,9.03125 9.03125,9.03125 l 72,0 c 4.971633,0 9.03125,-4.059617 9.03125,-9.03125 l 0,-71 c 0,-4.971633 -4.059617,-9.03125 -9.03125,-9.03125 l -72,0 z"
       transform="matrix(1.405628,0,0,-1.405628,-2.5949831,-36.930575)" />
    <path
       sodipodi:type="inkscape:offset"
       inkscape:radius="0.98962283"
       inkscape:original="M 12 -92 C 8.122 -92 5 -88.878 5 -85 L 5 -14 C 5 -10.122 8.122 -7 12 -7 L 84 -7 C 87.878 -7 91 -10.122 91 -14 L 91 -85 C 91 -88.878 87.878 -92 84 -92 L 12 -92 z "
       style="opacity:0.2;fill:url(#linearGradient3772);fill-opacity:1;fill-rule:nonzero;stroke:none;display:inline"
       id="path3770"
       d="m 12,-93 c -4.4091333,0 -8,3.590867 -8,8 l 0,71 c 0,4.4091333 3.5908667,8 8,8 l 72,0 c 4.409133,0 8,-3.5908667 8,-8 l 0,-71 c 0,-4.409133 -3.590867,-8 -8,-8 l -72,0 z"
       transform="matrix(1.405628,0,0,-1.405628,-2.5949831,-36.930575)" />
    <rect
       style="opacity:0.3;fill:url(#linearGradient3725);fill-opacity:1;fill-rule:nonzero;stroke:none;display:inline"
       id="rect3723"
       width="120.88402"
       height="119.47838"
       x="4.433157"
       y="-92.387199"
       rx="9.8393955"
       ry="9.8393955"
       transform="scale(1,-1)" />
    <rect
       transform="scale(1,-1)"
       ry="8.4337683"
       rx="8.4337683"
       y="-90.981575"
       x="5.8387852"
       height="118.07275"
       width="118.07275"
       id="rect3716"
       style="opacity:0.45;fill:url(#linearGradient3721);fill-opacity:1;fill-rule:nonzero;stroke:none;display:inline" />
  </g>
  <g
     inkscape:label="Button"
     inkscape:groupmode="layer"
     id="layer1"
     style="display:inline"
     transform="translate(0,32)">
    <rect
       style="fill:url(#linearGradient3825);fill-opacity:1;fill-rule:nonzero;stroke:none;opacity:1"
       id="rect2419"
       width="118.07275"
       height="118.07275"
       x="5.8387852"
       y="-28.496805"
       rx="8.4337683"
       ry="8.4337683" />
    <path
       style="opacity:0.5;fill:url(#linearGradient3188);fill-opacity:1;fill-rule:nonzero;stroke:none"
       d="m 14.272554,-28.496807 c -4.6723079,0 -8.433769,3.761461 -8.433769,8.433768 l 0,2.811256 0,95.582705 0,2.811256 c 0,0.470493 0.058122,0.914642 0.1317776,1.361702 0.068455,0.415498 0.1364022,0.839041 0.2635553,1.229924 0.013888,0.0427 0.029366,0.0894 0.043926,0.131778 0.1389674,0.4045 0.3301542,0.769514 0.5271105,1.142073 0.2032423,0.384449 0.4436388,0.752875 0.702814,1.098146 0.2591751,0.345272 0.5253907,0.665527 0.8345915,0.96637 0.618402,0.601688 1.3253805,1.144921 2.1084421,1.537406 0.391531,0.196243 0.80609,0.347115 1.229925,0.483184 -0.360125,-0.140875 -0.684134,-0.33211 -1.010295,-0.52711 -0.01041,-0.0062 -0.03354,0.0064 -0.04393,0 -0.04489,-0.02712 -0.08756,-0.05975 -0.131778,-0.08785 -0.169232,-0.107813 -0.324733,-0.229839 -0.483185,-0.351407 -0.1492396,-0.113575 -0.2997946,-0.226464 -0.4392591,-0.351408 -0.250102,-0.226914 -0.488399,-0.485487 -0.702814,-0.74674 -0.151215,-0.18309 -0.30698,-0.372892 -0.439258,-0.571036 -0.03526,-0.05395 -0.05404,-0.120702 -0.08785,-0.175704 C 8.2515271,86.136681 8.1595085,85.99403 8.0790046,85.842247 7.9370245,85.568563 7.7899025,85.257926 7.6836718,84.963729 c -0.011189,-0.03066 -0.033157,-0.057 -0.043926,-0.08785 C 7.5950117,84.74663 7.5894182,84.613262 7.5518942,84.480545 7.5092582,84.33068 7.4529528,84.195159 7.4201166,84.041285 7.3176763,83.561247 7.244413,83.059869 7.244413,82.547806 l 0,-2.811256 0,-95.582705 0,-2.811256 c 0,-3.910244 3.117897,-7.02814 7.028141,-7.02814 l 2.811256,0 95.5827,0 2.81126,0 c 3.91024,0 7.02814,3.117896 7.02814,7.02814 l 0,2.811256 0,95.582705 0,2.811256 c 0,0.512063 -0.0733,1.013441 -0.1757,1.493479 -0.0621,0.290815 -0.12423,0.55896 -0.21963,0.834593 -0.0108,0.03085 -0.0328,0.05719 -0.0439,0.08785 -0.0882,0.244213 -0.19451,0.516496 -0.30748,0.74674 -0.0584,0.116387 -0.1111,0.238892 -0.1757,0.351407 -0.0767,0.136642 -0.17819,0.26475 -0.26355,0.395333 -0.13229,0.198144 -0.28805,0.387947 -0.43926,0.571036 -0.20125,0.245212 -0.42611,0.48775 -0.65889,0.702814 -0.0157,0.01434 -0.0281,0.02973 -0.0439,0.04393 -0.19452,0.176485 -0.40073,0.329529 -0.61496,0.483184 -0.14417,0.102822 -0.2872,0.215573 -0.43926,0.307481 -0.0104,0.0064 -0.0335,-0.0062 -0.0439,0 -0.32617,0.195 -0.65018,0.386235 -1.0103,0.52711 0.42384,-0.136064 0.8384,-0.286941 1.22992,-0.483184 0.78307,-0.392485 1.49005,-0.935718 2.10844,-1.537406 0.30921,-0.300843 0.57542,-0.621098 0.8346,-0.966369 0.25917,-0.345272 0.49957,-0.713698 0.70281,-1.098147 0.19696,-0.372559 0.38815,-0.737573 0.52711,-1.142073 0.0147,-0.04326 0.03,-0.08819 0.0439,-0.131778 0.12716,-0.390883 0.19511,-0.814426 0.26356,-1.229924 0.0737,-0.44706 0.13177,-0.891209 0.13177,-1.361702 l 0,-2.811256 0,-95.582705 0,-2.811256 c 0,-4.672307 -3.76146,-8.433768 -8.43377,-8.433768 l -101.205215,0 z"
       id="rect3728"
       inkscape:connector-curvature="0" />
    <path
       style="fill:url(#linearGradient3699);fill-opacity:1;fill-rule:nonzero;stroke:none"
       d="m 14.272554,-28.496807 c -4.6723079,0 -8.433769,3.761461 -8.433769,8.433768 l 0,101.205217 c 0,4.672307 3.7614611,8.433768 8.433769,8.433768 l 101.205216,0 c 4.67231,0 8.43377,-3.761461 8.43377,-8.433768 l 0,-101.205217 c 0,-4.672307 -3.76146,-8.433768 -8.43377,-8.433768 l -101.205216,0 z m 5.622512,8.433768 89.960194,0 c 3.11487,0 5.62251,2.507641 5.62251,5.622512 l 0,89.960193 c 0,3.114871 -2.50764,5.622512 -5.62251,5.622512 l -89.960194,0 c -3.114871,0 -5.622512,-2.507641 -5.622512,-5.622512 l 0,-89.960193 c 0,-3.114871 2.507641,-5.622512 5.622512,-5.622512 z"
       id="rect3668"
       inkscape:connector-curvature="0" />
    <path
       id="path3615"
       d="m 14.272554,89.575946 c -4.6723079,0 -8.433769,-3.761461 -8.433769,-8.433768 l 0,-2.811256 0,-95.582705 0,-2.811256 c 0,-0.470494 0.058122,-0.914642 0.1317776,-1.361702 0.068455,-0.415498 0.1364022,-0.839041 0.2635553,-1.229925 0.013888,-0.0427 0.029366,-0.0894 0.043926,-0.131777 0.1389674,-0.404499 0.3301542,-0.769514 0.5271105,-1.142073 0.2032423,-0.384449 0.4436388,-0.752875 0.702814,-1.098147 0.2591751,-0.345271 0.5253907,-0.665525 0.8345915,-0.966369 0.618402,-0.601687 1.3253805,-1.144921 2.1084421,-1.537405 0.391531,-0.196243 0.80609,-0.347117 1.229925,-0.483186 -0.360125,0.140875 -0.684134,0.332111 -1.010295,0.527111 -0.01041,0.0062 -0.03354,-0.0064 -0.04393,0 -0.04489,0.02712 -0.08756,0.05975 -0.131778,0.08785 -0.169232,0.107811 -0.324733,0.229839 -0.483185,0.351407 -0.1492396,0.113575 -0.2997946,0.226463 -0.4392591,0.351407 -0.250102,0.226915 -0.488399,0.485487 -0.702814,0.746739 -0.151215,0.183091 -0.30698,0.372893 -0.439258,0.571037 -0.03526,0.05395 -0.05404,0.120701 -0.08785,0.175704 -0.09103,0.144825 -0.1830513,0.287474 -0.2635552,0.439258 -0.1419801,0.273685 -0.2891022,0.584321 -0.3953329,0.878518 -0.011189,0.03065 -0.033157,0.057 -0.043926,0.08785 -0.044734,0.129247 -0.050328,0.262614 -0.087852,0.395332 -0.042636,0.149866 -0.098942,0.285387 -0.1317776,0.439259 -0.1024402,0.480039 -0.1757035,0.981417 -0.1757035,1.49348 l 0,2.811256 0,95.582705 0,2.811256 c 0,3.910243 3.1178973,7.028141 7.0281413,7.028141 l 2.811255,0 95.582703,0 2.81126,0 c 3.91024,0 7.02814,-3.117898 7.02814,-7.028141 l 0,-2.811256 0,-95.582705 0,-2.811256 c 0,-0.512063 -0.0733,-1.013441 -0.1757,-1.49348 -0.0621,-0.290814 -0.12423,-0.558959 -0.21964,-0.834591 -0.0108,-0.03086 -0.0328,-0.05719 -0.0439,-0.08785 -0.0882,-0.244212 -0.19452,-0.516497 -0.30748,-0.74674 -0.0584,-0.116386 -0.1111,-0.238892 -0.1757,-0.351407 -0.0767,-0.136641 -0.1782,-0.26475 -0.26355,-0.395333 -0.13229,-0.198144 -0.28805,-0.387946 -0.43927,-0.571037 -0.20124,-0.245211 -0.4261,-0.48775 -0.65888,-0.702814 -0.0157,-0.01433 -0.0281,-0.02973 -0.0439,-0.04393 -0.19452,-0.176485 -0.40073,-0.32953 -0.61496,-0.483185 -0.14418,-0.102821 -0.2872,-0.215573 -0.43926,-0.307481 -0.0104,-0.0064 -0.0335,0.0062 -0.0439,0 -0.32616,-0.195 -0.65017,-0.386236 -1.01029,-0.527111 0.42383,0.136065 0.8384,0.286943 1.22992,0.483186 0.78306,0.392484 1.49004,0.935718 2.10844,1.537405 0.30921,0.300844 0.57542,0.621098 0.8346,0.966369 0.25917,0.345272 0.49956,0.713698 0.70281,1.098147 0.19696,0.372559 0.38815,0.737574 0.52711,1.142073 0.0147,0.04327 0.03,0.08819 0.0439,0.131777 0.12716,0.390884 0.19511,0.814427 0.26357,1.229925 0.0737,0.44706 0.13177,0.891208 0.13177,1.361702 l 0,2.811256 0,95.582705 0,2.811256 c 0,4.672307 -3.76146,8.433768 -8.43377,8.433768 l -101.205217,0 z"
       style="opacity:0.5;fill:url(#radialGradient3619);fill-opacity:1;fill-rule:nonzero;stroke:none"
       inkscape:connector-curvature="0" />
    <path
       style="opacity:1;color:#000000;fill:url(#linearGradient3104);fill-opacity:1;fill-rule:nonzero;stroke:none;stroke-width:1.50000000000000000;marker:none;visibility:visible;display:inline;overflow:visible;enable-background:accumulate"
       d="m 82.59994,-14.251782 3.809123,21.8287276 4.70045,-5.3267652 C 104.6625,15.770715 105.54795,38.178668 93.087217,52.29975 87.103367,59.08094 78.779003,63.001349 69.945658,63.20528 L 70.41176,75.000819 C 82.189548,74.72892 93.2887,69.501691 101.26718,60.46012 117.88149,41.63201 116.70089,11.754732 98.630228,-6.272651 l 4.700462,-5.326767 -20.73075,-2.652364 z"
       id="path3884"
       inkscape:connector-curvature="0" />
    <path
       id="path3900"
       d="M 45.832389,74.552512 42.635404,52.625771 37.787782,57.818966 C 24.618323,43.924574 24.360072,21.500623 37.210961,7.7336482 43.382173,1.1225116 51.812949,-2.5634962 60.648541,-2.5202324 L 60.512597,-14.324193 C 48.731811,-14.381881 37.490775,-9.4672001 29.262489,-0.65235372 12.127974,17.703611 12.472306,47.602221 30.031585,66.128072 l -4.847623,5.19318 20.648427,3.23126 z"
       style="color:#000000;fill:url(#linearGradient3902);fill-opacity:1.0;fill-rule:nonzero;stroke:none;stroke-width:1.50000000000000000;marker:none;visibility:visible;display:inline;overflow:visible;enable-background:accumulate"
       inkscape:connector-curvature="0"
       inkscape:transform-center-x="22.415342"
       inkscape:transform-center-y="-2.7777392" />
    <text
       xml:space="preserve"
       style="font-size:65.43106079px;font-style:italic;font-variant:normal;font-weight:normal;font-stretch:normal;line-height:125%;letter-spacing:0px;word-spacing:0px;opacity:0.90322583;fill:#0101f7;fill-opacity:1;stroke:none;font-family:Webdings;-inkscape-font-specification:Webdings Italic"
       x="35.589493"
       y="54.811188"
       id="text3116"
       sodipodi:linespacing="125%"
       transform="scale(1.0130588,0.98710955)"><tspan
         sodipodi:role="line"
         id="tspan3118"
         x="35.589493"
         y="54.811188"
         style="font-style:italic;font-variant:normal;font-weight:normal;font-stretch:normal;fill:#0101f7;fill-opacity:1;font-family:Webdings;-inkscape-font-specification:Webdings Italic">G</tspan></text>
    <text
       xml:space="preserve"
       style="font-size:47.58297347999999971px;font-style:normal;font-weight:normal;line-height:125%;letter-spacing:0px;word-spacing:0px;opacity:0.93023257000000004;fill:#4d4d4d;fill-opacity:1;stroke:none;display:inline;font-family:Sans"
       x="25.225239"
       y="60.215343"
       id="text3116-0"
       sodipodi:linespacing="125%"
       transform="scale(1.3629204,0.73371857)"><tspan
         sodipodi:role="line"
         id="tspan3118-5"
         x="25.225239"
         y="60.215343"
         style="font-style:italic;font-variant:normal;font-weight:normal;font-stretch:normal;fill:#4d4d4d;fill-opacity:1;font-family:Ubuntu Mono;-inkscape-font-specification:Ubuntu Mono Italic">f</tspan></text>
    <text
       xml:space="preserve"
       style="font-size:25.85625839000000070px;font-style:normal;font-weight:normal;line-height:125%;letter-spacing:0px;word-spacing:0px;fill:#808080;fill-opacity:1;stroke:none;display:inline;font-family:Sans"
       x="48.287701"
       y="52.839886"
       id="text3116-0-9"
       sodipodi:linespacing="125%"
       transform="scale(1.1214039,0.89173936)"><tspan
         sodipodi:role="line"
         id="tspan3118-5-1"
         x="48.287701"
         y="52.839886"
         style="font-style:italic;font-variant:normal;font-weight:normal;font-stretch:normal;fill:#808080;fill-opacity:1;font-family:Ubuntu Mono;-inkscape-font-specification:Ubuntu Mono Italic">run</tspan></text>
  </g>
  <g
     inkscape:groupmode="layer"
     id="layer5"
     inkscape:label="Highlight"
     style="display:none"
     transform="translate(0,32)">
    <rect
       style="opacity:0.1;fill:url(#linearGradient3613);fill-opacity:1;fill-rule:nonzero;stroke:#ffffff;stroke-width:0.5;stroke-linecap:round;stroke-linejoin:miter;stroke-miterlimit:4;stroke-opacity:1;stroke-dasharray:none;stroke-dashoffset:0;filter:url(#filter3794)"
       id="rect3171"
       width="66"
       height="66"
       x="15"
       y="15"
       rx="12"
       ry="12"
       clip-path="url(#clipPath3613)"
       transform="matrix(1.405628,0,0,1.405628,-2.5949831,-36.930575)" />
  </g>
</svg>
